<?xml version="1.0" encoding="UTF-8" standalone="no"?>
<!-- Generator: Adobe Illustrator 18.0.0, SVG Export Plug-In . SVG Version: 6.00 Build 0)  -->

<svg
   xmlns:dc="http://purl.org/dc/elements/1.1/"
   xmlns:cc="http://creativecommons.org/ns#"
   xmlns:rdf="http://www.w3.org/1999/02/22-rdf-syntax-ns#"
   xmlns:svg="http://www.w3.org/2000/svg"
   xmlns="http://www.w3.org/2000/svg"
   xmlns:sodipodi="http://sodipodi.sourceforge.net/DTD/sodipodi-0.dtd"
   xmlns:inkscape="http://www.inkscape.org/namespaces/inkscape"
   version="1.1"
   id="Layer_1"
   x="0px"
   y="0px"
   width="120px"
   height="40px"
   viewBox="0 0 120 40"
   enable-background="new 0 0 120 40"
   xml:space="preserve"
   inkscape:version="0.48.3.1 r9886"
   sodipodi:docname="vicons.svg"><metadata
   id="metadata31"><rdf:RDF><cc:Work
       rdf:about=""><dc:format>image/svg+xml</dc:format><dc:type
         rdf:resource="http://purl.org/dc/dcmitype/StillImage" /></cc:Work></rdf:RDF></metadata><defs
   id="defs29" /><sodipodi:namedview
   pagecolor="#ffffff"
   bordercolor="#666666"
   borderopacity="1"
   objecttolerance="10"
   gridtolerance="10"
   guidetolerance="10"
   inkscape:pageopacity="0"
   inkscape:pageshadow="2"
   inkscape:window-width="1024"
   inkscape:window-height="717"
   id="namedview27"
   showgrid="true"
   inkscape:snap-global="false"
   inkscape:zoom="5.6568542"
   inkscape:cx="46.553368"
   inkscape:cy="11.966588"
   inkscape:window-x="0"
   inkscape:window-y="24"
   inkscape:window-maximized="1"
   inkscape:current-layer="Layer_1"><inkscape:grid
     type="xygrid"
     id="grid3099" /></sodipodi:namedview>












<g
   id="g3047"
   transform="matrix(0.17524295,0,0,0.17524295,100.70984,3.4373034)"
   style="fill:#374548;opacity:0.80102041"><path
     id="path3009"
     d="M 52.303,0 H 52.301 C 27.765,0 12.314,8.457 13.352,15.25 c 0.295,1.938 1.123,7.221 2.167,13.87 C 3.495,33.788 -0.487,41.36 0.046,47.529 0.678,54.836 7.25,62.658 21.686,64.008 29.928,64.778 39.844,60.26 46.268,52.537 45.657,51.498 45.301,50.292 45.301,49 c 0,-3.865 3.132,-7 7,-7 3.865,0 7,3.135 7,7 0,3.81 -3.049,6.905 -6.84,6.993 -7.652,9.864 -19.295,15.814 -30.326,15.123 0.256,1.627 0.353,2.242 0.48,3.065 0.454,2.891 11.737,11.803 29.686,11.819 h 0.002 C 70.254,85.984 81.537,77.072 81.988,74.181 82.435,71.304 90.199,22.148 91.252,15.25 92.291,8.457 76.838,0 52.303,0 z M 7.02,46.927 c -0.277,-3.21 2.272,-7.486 9.618,-10.696 1.057,6.703 2.205,13.986 3.212,20.38 C 11.831,55.033 7.359,50.854 7.02,46.927 z M 52.301,25.623 C 34.35,25.611 21.617,18.945 21.617,16.459 21.607,13.984 34.353,7.311 52.301,7.322 c 17.949,-0.011 30.695,6.662 30.687,9.137 0,2.486 -12.734,9.152 -30.687,9.164 z"
     inkscape:connector-curvature="0"
     style="fill:#374548" /><g
     id="g3011"
     style="fill:#374548">
</g><g
     id="g3013"
     style="fill:#374548">
</g><g
     id="g3015"
     style="fill:#374548">
</g><g
     id="g3017"
     style="fill:#374548">
</g><g
     id="g3019"
     style="fill:#374548">
</g><g
     id="g3021"
     style="fill:#374548">
</g><g
     id="g3023"
     style="fill:#374548">
</g><g
     id="g3025"
     style="fill:#374548">
</g><g
     id="g3027"
     style="fill:#374548">
</g><g
     id="g3029"
     style="fill:#374548">
</g><g
     id="g3031"
     style="fill:#374548">
</g><g
     id="g3033"
     style="fill:#374548">
</g><g
     id="g3035"
     style="fill:#374548">
</g><g
     id="g3037"
     style="fill:#374548">
</g><g
     id="g3039"
     style="fill:#374548">
</g></g><g
   transform="matrix(0.17524295,0,0,0.17524295,100.71009,21.911888)"
   id="g3101"
   style="fill:#ff2a2a"><path
     inkscape:connector-curvature="0"
     d="M 52.303,0 H 52.301 C 27.765,0 12.314,8.457 13.352,15.25 c 0.295,1.938 1.123,7.221 2.167,13.87 C 3.495,33.788 -0.487,41.36 0.046,47.529 0.678,54.836 7.25,62.658 21.686,64.008 29.928,64.778 39.844,60.26 46.268,52.537 45.657,51.498 45.301,50.292 45.301,49 c 0,-3.865 3.132,-7 7,-7 3.865,0 7,3.135 7,7 0,3.81 -3.049,6.905 -6.84,6.993 -7.652,9.864 -19.295,15.814 -30.326,15.123 0.256,1.627 0.353,2.242 0.48,3.065 0.454,2.891 11.737,11.803 29.686,11.819 h 0.002 C 70.254,85.984 81.537,77.072 81.988,74.181 82.435,71.304 90.199,22.148 91.252,15.25 92.291,8.457 76.838,0 52.303,0 z M 7.02,46.927 c -0.277,-3.21 2.272,-7.486 9.618,-10.696 1.057,6.703 2.205,13.986 3.212,20.38 C 11.831,55.033 7.359,50.854 7.02,46.927 z M 52.301,25.623 C 34.35,25.611 21.617,18.945 21.617,16.459 21.607,13.984 34.353,7.311 52.301,7.322 c 17.949,-0.011 30.695,6.662 30.687,9.137 0,2.486 -12.734,9.152 -30.687,9.164 z"
     id="path3103"
     style="fill:#ff2a2a" /><g
     id="g3105"
     style="fill:#ff2a2a">
</g><g
     id="g3107"
     style="fill:#ff2a2a">
</g><g
     id="g3109"
     style="fill:#ff2a2a">
</g><g
     id="g3111"
     style="fill:#ff2a2a">
</g><g
     id="g3113"
     style="fill:#ff2a2a">
</g><g
     id="g3115"
     style="fill:#ff2a2a">
</g><g
     id="g3117"
     style="fill:#ff2a2a">
</g><g
     id="g3119"
     style="fill:#ff2a2a">
</g><g
     id="g3121"
     style="fill:#ff2a2a">
</g><g
     id="g3123"
     style="fill:#ff2a2a">
</g><g
     id="g3125"
     style="fill:#ff2a2a">
</g><g
     id="g3127"
     style="fill:#ff2a2a">
</g><g
     id="g3129"
     style="fill:#ff2a2a">
</g><g
     id="g3131"
     style="fill:#ff2a2a">
</g><g
     id="g3133"
     style="fill:#ff2a2a">
</g></g><g
   id="g3176"
   transform="matrix(0.16000022,0,0,0.16000022,62.777031,5.4533563)"
   style="fill:#374548;opacity:0.80102041"><g
     id="g3136"
     style="fill:#374548">
	<path
   id="path3138"
   d="m 95.351,25 h -90.7 c -4.604,0 -4.834,2.241 -4.584,4.979 L 4.194,75.02 C 4.444,77.759 5.093,80 9.69,80 h 80.621 c 4.688,0 5.244,-2.241 5.494,-4.979 L 99.932,29.98 C 100.183,27.241 99.954,25 95.351,25 z M 92.022,14 C 91.467,11.8 88.747,10 85.975,10 H 51.903 C 49.132,10 45.258,8.412 43.296,6.472 L 40.317,3.529 C 38.354,1.588 34.481,0 31.71,0 H 15.431 C 12.66,0 10.142,2.236 9.837,4.97 L 8.376,18 H 93.03 l -1.008,-4 z"
   inkscape:connector-curvature="0"
   style="fill:#374548" />
</g><g
     id="g3140"
     style="fill:#374548">
</g><g
     id="g3142"
     style="fill:#374548">
</g><g
     id="g3144"
     style="fill:#374548">
</g><g
     id="g3146"
     style="fill:#374548">
</g><g
     id="g3148"
     style="fill:#374548">
</g><g
     id="g3150"
     style="fill:#374548">
</g><g
     id="g3152"
     style="fill:#374548">
</g><g
     id="g3154"
     style="fill:#374548">
</g><g
     id="g3156"
     style="fill:#374548">
</g><g
     id="g3158"
     style="fill:#374548">
</g><g
     id="g3160"
     style="fill:#374548">
</g><g
     id="g3162"
     style="fill:#374548">
</g><g
     id="g3164"
     style="fill:#374548">
</g><g
     id="g3166"
     style="fill:#374548">
</g><g
     id="g3168"
     style="fill:#374548">
</g></g><g
   transform="matrix(0.16000022,0,0,0.16000022,62.777071,23.87356)"
   id="g3195"
   style="fill:#ff2a2a"><g
     id="g3197"
     style="fill:#ff2a2a">
	<path
   inkscape:connector-curvature="0"
   d="m 95.351,25 h -90.7 c -4.604,0 -4.834,2.241 -4.584,4.979 L 4.194,75.02 C 4.444,77.759 5.093,80 9.69,80 h 80.621 c 4.688,0 5.244,-2.241 5.494,-4.979 L 99.932,29.98 C 100.183,27.241 99.954,25 95.351,25 z M 92.022,14 C 91.467,11.8 88.747,10 85.975,10 H 51.903 C 49.132,10 45.258,8.412 43.296,6.472 L 40.317,3.529 C 38.354,1.588 34.481,0 31.71,0 H 15.431 C 12.66,0 10.142,2.236 9.837,4.97 L 8.376,18 H 93.03 l -1.008,-4 z"
   id="path3199"
   style="fill:#ff2a2a" />
</g><g
     id="g3201"
     style="fill:#ff2a2a">
</g><g
     id="g3203"
     style="fill:#ff2a2a">
</g><g
     id="g3205"
     style="fill:#ff2a2a">
</g><g
     id="g3207"
     style="fill:#ff2a2a">
</g><g
     id="g3209"
     style="fill:#ff2a2a">
</g><g
     id="g3211"
     style="fill:#ff2a2a">
</g><g
     id="g3213"
     style="fill:#ff2a2a">
</g><g
     id="g3215"
     style="fill:#ff2a2a">
</g><g
     id="g3217"
     style="fill:#ff2a2a">
</g><g
     id="g3219"
     style="fill:#ff2a2a">
</g><g
     id="g3221"
     style="fill:#ff2a2a">
</g><g
     id="g3223"
     style="fill:#ff2a2a">
</g><g
     id="g3225"
     style="fill:#ff2a2a">
</g><g
     id="g3227"
     style="fill:#ff2a2a">
</g><g
     id="g3229"
     style="fill:#ff2a2a">
</g></g><path
   id="path3232"
   d="m 16.224768,13.713769 c -0.313761,-0.33328 -1.827518,-1.817277 -2.519676,-2.494715 -0.212,-0.207041 -0.515839,-0.33904 -0.833758,-0.33904 -0.317921,0 -4.1174322,0 -4.1174322,0 0,0 -3.7998329,0 -4.1174324,0 -0.317599,0 -0.6217583,0.131999 -0.8337582,0.33904 -0.6921591,0.677598 -2.2060756,2.161435 -2.5196756,2.494715 -0.39119856,0.415999 -0.60591892,0.747998 -0.50367854,1.159357 L 1.2281555,17.332162 C 1.3299162,17.743361 1.7804751,18.08 2.2292745,18.08 H 15.278529 c 0.448958,0 0.899358,-0.336639 1.001438,-0.747679 l 0.448799,-2.459035 c 0.10192,-0.411359 -0.11264,-0.743359 -0.503998,-1.159517 z m -4.232793,0.533119 c -0.08128,0 -0.15504,0.04112 -0.19136,0.10624 l -0.653598,1.627996 H 6.3607863 l -0.653599,-1.627996 c -0.03664,-0.06513 -0.1102398,-0.10624 -0.1915195,-0.10624 h -2.835514 l 1.6323166,-1.846877 h 8.8828616 l 1.632317,1.846877 h -2.835674 z"
   inkscape:connector-curvature="0"
   style="fill:#374548;opacity:0.80102041" /><path
   inkscape:connector-curvature="0"
   d="m 16.224767,31.932196 c -0.31376,-0.33328 -1.827517,-1.817277 -2.519676,-2.494715 -0.211999,-0.207041 -0.515838,-0.33904 -0.833757,-0.33904 -0.31792,0 -4.1174323,0 -4.1174323,0 0,0 -3.7998329,0 -4.1174324,0 -0.3175988,0 -0.6217583,0.131999 -0.8337581,0.33904 -0.6921591,0.677598 -2.2060756,2.161435 -2.5196756,2.494715 -0.39119856,0.415999 -0.60591892,0.747998 -0.50367854,1.159357 l 0.44879844,2.459036 c 0.1017607,0.411199 0.5523196,0.747838 1.001119,0.747838 H 15.278528 c 0.448959,0 0.899359,-0.336639 1.001439,-0.747679 l 0.448799,-2.459035 c 0.10192,-0.411359 -0.11264,-0.743358 -0.503999,-1.159517 z m -4.232792,0.533119 c -0.08128,0 -0.15504,0.04112 -0.19136,0.106239 l -0.653598,1.627997 H 6.3607863 L 5.7071873,32.571554 C 5.6705472,32.50643 5.5969475,32.465315 5.5156677,32.465315 H 2.6801538 l 1.6323166,-1.846877 h 8.8828616 l 1.632317,1.846877 h -2.835674 z"
   id="path3241"
   style="fill:#ff2a2a" /><g
   id="g3284"
   transform="matrix(0.20805942,0,0,0.20805942,22.564472,2.0658258)"
   style="fill:#374548;opacity:0.80102041"><g
     id="g3244"
     style="fill:#374548">
	<path
   id="path3246"
   d="M 71.807,6.191 C 64.592,-1.025 59.178,0.058 59.178,0.058 L 33.918,25.317 5.049,54.185 0,78 23.812,72.949 52.681,44.08 77.941,18.823 c 0,0.001 1.084,-5.414 -6.134,-12.632 z M 22.395,70.086 14.278,71.834 C 13.493,70.367 12.551,68.902 10.823,67.175 9.096,65.448 7.63,64.506 6.165,63.719 l 1.75,-8.116 2.346,-2.348 c 0,0 4.418,0.088 9.404,5.078 4.988,4.987 5.078,9.407 5.078,9.407 l -2.348,2.346 z"
   inkscape:connector-curvature="0"
   style="fill:#374548" />
</g><g
     id="g3248"
     style="fill:#374548">
</g><g
     id="g3250"
     style="fill:#374548">
</g><g
     id="g3252"
     style="fill:#374548">
</g><g
     id="g3254"
     style="fill:#374548">
</g><g
     id="g3256"
     style="fill:#374548">
</g><g
     id="g3258"
     style="fill:#374548">
</g><g
     id="g3260"
     style="fill:#374548">
</g><g
     id="g3262"
     style="fill:#374548">
</g><g
     id="g3264"
     style="fill:#374548">
</g><g
     id="g3266"
     style="fill:#374548">
</g><g
     id="g3268"
     style="fill:#374548">
</g><g
     id="g3270"
     style="fill:#374548">
</g><g
     id="g3272"
     style="fill:#374548">
</g><g
     id="g3274"
     style="fill:#374548">
</g><g
     id="g3276"
     style="fill:#374548">
</g></g><g
   transform="matrix(0.20805942,0,0,0.20805942,22.564,20.359201)"
   id="g3303"
   style="fill:#ff2a2a"><g
     id="g3305"
     style="fill:#ff2a2a">
	<path
   inkscape:connector-curvature="0"
   d="M 71.807,6.191 C 64.592,-1.025 59.178,0.058 59.178,0.058 L 33.918,25.317 5.049,54.185 0,78 23.812,72.949 52.681,44.08 77.941,18.823 c 0,0.001 1.084,-5.414 -6.134,-12.632 z M 22.395,70.086 14.278,71.834 C 13.493,70.367 12.551,68.902 10.823,67.175 9.096,65.448 7.63,64.506 6.165,63.719 l 1.75,-8.116 2.346,-2.348 c 0,0 4.418,0.088 9.404,5.078 4.988,4.987 5.078,9.407 5.078,9.407 l -2.348,2.346 z"
   id="path3307"
   style="fill:#ff2a2a" />
</g><g
     id="g3309"
     style="fill:#ff2a2a">
</g><g
     id="g3311"
     style="fill:#ff2a2a">
</g><g
     id="g3313"
     style="fill:#ff2a2a">
</g><g
     id="g3315"
     style="fill:#ff2a2a">
</g><g
     id="g3317"
     style="fill:#ff2a2a">
</g><g
     id="g3319"
     style="fill:#ff2a2a">
</g><g
     id="g3321"
     style="fill:#ff2a2a">
</g><g
     id="g3323"
     style="fill:#ff2a2a">
</g><g
     id="g3325"
     style="fill:#ff2a2a">
</g><g
     id="g3327"
     style="fill:#ff2a2a">
</g><g
     id="g3329"
     style="fill:#ff2a2a">
</g><g
     id="g3331"
     style="fill:#ff2a2a">
</g><g
     id="g3333"
     style="fill:#ff2a2a">
</g><g
     id="g3335"
     style="fill:#ff2a2a">
</g><g
     id="g3337"
     style="fill:#ff2a2a">
</g></g><g
   id="g3380"
   transform="matrix(0.19047619,0,0,0.19047619,82.327866,2.2619849)"
   style="fill:#374548;opacity:0.80102041"><g
     id="g3340"
     style="fill:#374548">
	<path
   id="path3342"
   d="m 75.921,42 c 0,-5.237 3.224,-9.372 8.079,-12.213 -0.874,-2.923 -2.033,-5.723 -3.459,-8.36 C 75.097,22.852 70.69,20.719 66.986,17.015 63.282,13.311 62.148,8.903 63.573,3.46 60.938,2.033 58.138,0.874 55.213,0 52.371,4.856 47.238,8.079 42,8.079 36.763,8.079 31.63,4.856 28.787,0 25.864,0.873 23.064,2.033 20.428,3.458 21.852,8.902 20.719,13.31 17.015,17.015 13.311,20.719 8.903,22.852 3.459,21.429 2.033,24.063 0.874,26.863 0,29.787 4.855,32.628 8.079,36.763 8.079,42 8.079,47.237 4.855,52.371 0,55.212 c 0.874,2.924 2.033,5.724 3.459,8.361 5.444,-1.425 9.852,-0.291 13.556,3.413 3.703,3.705 4.837,8.111 3.413,13.555 2.636,1.425 5.436,2.586 8.36,3.458 2.843,-4.855 7.975,-8.08 13.212,-8.08 5.238,0 10.371,3.225 13.213,8.08 2.925,-0.874 5.725,-2.033 8.361,-3.46 C 62.15,75.097 63.282,70.69 66.986,66.985 70.69,63.281 75.097,61.147 80.541,62.572 81.967,59.935 83.126,57.135 84,54.211 79.145,51.371 75.921,47.237 75.921,42 z M 42,60.266 C 31.913,60.266 23.735,52.088 23.735,42 23.735,31.912 31.912,23.734 42,23.734 c 10.088,0 18.265,8.178 18.265,18.266 0,10.087 -8.177,18.266 -18.265,18.266 z"
   inkscape:connector-curvature="0"
   style="fill:#374548" />
</g><g
     id="g3344"
     style="fill:#374548">
</g><g
     id="g3346"
     style="fill:#374548">
</g><g
     id="g3348"
     style="fill:#374548">
</g><g
     id="g3350"
     style="fill:#374548">
</g><g
     id="g3352"
     style="fill:#374548">
</g><g
     id="g3354"
     style="fill:#374548">
</g><g
     id="g3356"
     style="fill:#374548">
</g><g
     id="g3358"
     style="fill:#374548">
</g><g
     id="g3360"
     style="fill:#374548">
</g><g
     id="g3362"
     style="fill:#374548">
</g><g
     id="g3364"
     style="fill:#374548">
</g><g
     id="g3366"
     style="fill:#374548">
</g><g
     id="g3368"
     style="fill:#374548">
</g><g
     id="g3370"
     style="fill:#374548">
</g><g
     id="g3372"
     style="fill:#374548">
</g></g><g
   transform="matrix(0.19047619,0,0,0.19047619,82.327866,20.753788)"
   id="g3399"
   style="fill:#ff2a2a"><g
     id="g3401"
     style="fill:#ff2a2a">
	<path
   inkscape:connector-curvature="0"
   d="m 75.921,42 c 0,-5.237 3.224,-9.372 8.079,-12.213 -0.874,-2.923 -2.033,-5.723 -3.459,-8.36 C 75.097,22.852 70.69,20.719 66.986,17.015 63.282,13.311 62.148,8.903 63.573,3.46 60.938,2.033 58.138,0.874 55.213,0 52.371,4.856 47.238,8.079 42,8.079 36.763,8.079 31.63,4.856 28.787,0 25.864,0.873 23.064,2.033 20.428,3.458 21.852,8.902 20.719,13.31 17.015,17.015 13.311,20.719 8.903,22.852 3.459,21.429 2.033,24.063 0.874,26.863 0,29.787 4.855,32.628 8.079,36.763 8.079,42 8.079,47.237 4.855,52.371 0,55.212 c 0.874,2.924 2.033,5.724 3.459,8.361 5.444,-1.425 9.852,-0.291 13.556,3.413 3.703,3.705 4.837,8.111 3.413,13.555 2.636,1.425 5.436,2.586 8.36,3.458 2.843,-4.855 7.975,-8.08 13.212,-8.08 5.238,0 10.371,3.225 13.213,8.08 2.925,-0.874 5.725,-2.033 8.361,-3.46 C 62.15,75.097 63.282,70.69 66.986,66.985 70.69,63.281 75.097,61.147 80.541,62.572 81.967,59.935 83.126,57.135 84,54.211 79.145,51.371 75.921,47.237 75.921,42 z M 42,60.266 C 31.913,60.266 23.735,52.088 23.735,42 23.735,31.912 31.912,23.734 42,23.734 c 10.088,0 18.265,8.178 18.265,18.266 0,10.087 -8.177,18.266 -18.265,18.266 z"
   id="path3403"
   style="fill:#ff2a2a" />
</g><g
     id="g3405"
     style="fill:#ff2a2a">
</g><g
     id="g3407"
     style="fill:#ff2a2a">
</g><g
     id="g3409"
     style="fill:#ff2a2a">
</g><g
     id="g3411"
     style="fill:#ff2a2a">
</g><g
     id="g3413"
     style="fill:#ff2a2a">
</g><g
     id="g3415"
     style="fill:#ff2a2a">
</g><g
     id="g3417"
     style="fill:#ff2a2a">
</g><g
     id="g3419"
     style="fill:#ff2a2a">
</g><g
     id="g3421"
     style="fill:#ff2a2a">
</g><g
     id="g3423"
     style="fill:#ff2a2a">
</g><g
     id="g3425"
     style="fill:#ff2a2a">
</g><g
     id="g3427"
     style="fill:#ff2a2a">
</g><g
     id="g3429"
     style="fill:#ff2a2a">
</g><g
     id="g3431"
     style="fill:#ff2a2a">
</g><g
     id="g3433"
     style="fill:#ff2a2a">
</g></g><g
   id="g3476"
   transform="matrix(0.16000049,0,0,0.16000049,42.380733,4.0779719)"
   style="fill:#374548;opacity:0.80102041"><g
     id="g3436"
     style="fill:#374548">
	<path
   id="path3438"
   d="m 50.001,0 -26,24.398 h 16.5 V 50 h 19 V 24.398 h 16.5 L 50.001,0 z M 96.698,57.711 80.78,47 H 70.964 L 87.966,60.043 H 70.243 c -0.508,0 -0.969,0.258 -1.197,0.664 L 64.96,71.883 H 35.038 L 30.952,60.707 C 30.725,60.301 30.263,60.043 29.755,60.043 H 12.032 L 29.036,47 H 19.218 L 3.302,57.711 c -2.369,1.415 -3.785,4.676 -3.15,7.246 L 2.959,80.326 C 3.595,82.896 6.411,85 9.216,85 h 81.568 c 2.805,0 5.621,-2.104 6.258,-4.674 l 2.805,-15.369 c 0.638,-2.57 -0.78,-5.831 -3.149,-7.246 z"
   inkscape:connector-curvature="0"
   style="fill:#374548" />
</g><g
     id="g3440"
     style="fill:#374548">
</g><g
     id="g3442"
     style="fill:#374548">
</g><g
     id="g3444"
     style="fill:#374548">
</g><g
     id="g3446"
     style="fill:#374548">
</g><g
     id="g3448"
     style="fill:#374548">
</g><g
     id="g3450"
     style="fill:#374548">
</g><g
     id="g3452"
     style="fill:#374548">
</g><g
     id="g3454"
     style="fill:#374548">
</g><g
     id="g3456"
     style="fill:#374548">
</g><g
     id="g3458"
     style="fill:#374548">
</g><g
     id="g3460"
     style="fill:#374548">
</g><g
     id="g3462"
     style="fill:#374548">
</g><g
     id="g3464"
     style="fill:#374548">
</g><g
     id="g3466"
     style="fill:#374548">
</g><g
     id="g3468"
     style="fill:#374548">
</g></g><g
   transform="matrix(0.16000049,0,0,0.16000049,42.380968,22.781526)"
   id="g3495"
   style="fill:#ff2a2a"><g
     id="g3497"
     style="fill:#ff2a2a">
	<path
   inkscape:connector-curvature="0"
   d="m 50.001,0 -26,24.398 h 16.5 V 50 h 19 V 24.398 h 16.5 L 50.001,0 z M 96.698,57.711 80.78,47 H 70.964 L 87.966,60.043 H 70.243 c -0.508,0 -0.969,0.258 -1.197,0.664 L 64.96,71.883 H 35.038 L 30.952,60.707 C 30.725,60.301 30.263,60.043 29.755,60.043 H 12.032 L 29.036,47 H 19.218 L 3.302,57.711 c -2.369,1.415 -3.785,4.676 -3.15,7.246 L 2.959,80.326 C 3.595,82.896 6.411,85 9.216,85 h 81.568 c 2.805,0 5.621,-2.104 6.258,-4.674 l 2.805,-15.369 c 0.638,-2.57 -0.78,-5.831 -3.149,-7.246 z"
   id="path3499"
   style="fill:#ff2a2a" />
</g><g
     id="g3501"
     style="fill:#ff2a2a">
</g><g
     id="g3503"
     style="fill:#ff2a2a">
</g><g
     id="g3505"
     style="fill:#ff2a2a">
</g><g
     id="g3507"
     style="fill:#ff2a2a">
</g><g
     id="g3509"
     style="fill:#ff2a2a">
</g><g
     id="g3511"
     style="fill:#ff2a2a">
</g><g
     id="g3513"
     style="fill:#ff2a2a">
</g><g
     id="g3515"
     style="fill:#ff2a2a">
</g><g
     id="g3517"
     style="fill:#ff2a2a">
</g><g
     id="g3519"
     style="fill:#ff2a2a">
</g><g
     id="g3521"
     style="fill:#ff2a2a">
</g><g
     id="g3523"
     style="fill:#ff2a2a">
</g><g
     id="g3525"
     style="fill:#ff2a2a">
</g><g
     id="g3527"
     style="fill:#ff2a2a">
</g><g
     id="g3529"
     style="fill:#ff2a2a">
</g></g></svg>